<?xml version="1.0" standalone="no"?>
<!DOCTYPE svg PUBLIC "-//W3C//DTD SVG 20010904//EN"
 "http://www.w3.org/TR/2001/REC-SVG-20010904/DTD/svg10.dtd">
<svg version="1.0" xmlns="http://www.w3.org/2000/svg"
 width="512.000000pt" height="512.000000pt" viewBox="0 0 512.000000 512.000000"
 preserveAspectRatio="xMidYMid meet">
<metadata>
Created by potrace 1.14, written by Peter Selinger 2001-2017
</metadata>
<g transform="translate(0.000000,512.000000) scale(0.100000,-0.100000)"
fill="#000000" stroke="none">
<path d="M2055 4510 c-16 -8 -33 -19 -36 -23 -3 -5 -8 -8 -10 -6 -7 4 -78 -33
-90 -47 -6 -8 -16 -14 -22 -14 -10 0 -43 -29 -121 -106 -56 -56 -84 -91 -91
-114 -4 -11 -10 -20 -14 -20 -7 0 -59 -104 -66 -132 -2 -5 -3 -9 -5 -10 -1 -2
-3 -11 -5 -21 -2 -10 -7 -26 -10 -35 -4 -9 -9 -31 -10 -49 -6 -66 -20 -68 -83
-10 -26 24 -63 54 -82 67 -19 14 -40 29 -47 35 -37 31 -43 35 -43 30 0 -4 -12
2 -27 12 -36 24 -221 113 -236 113 -3 0 -18 5 -34 12 -31 12 -49 17 -75 20
-10 1 -18 5 -18 8 0 8 -27 10 -160 12 -117 2 -139 -2 -203 -30 -35 -16 -45
-26 -50 -52 -6 -29 12 -68 25 -54 3 2 11 -2 18 -11 7 -8 19 -15 26 -15 8 0 14
-5 14 -11 0 -5 4 -8 9 -4 5 3 12 1 16 -4 3 -6 28 -22 55 -37 28 -15 50 -32 50
-37 0 -6 3 -8 6 -4 4 3 12 1 20 -6 32 -29 44 -37 53 -37 5 0 11 -4 13 -8 2 -5
26 -23 53 -42 28 -19 60 -43 72 -55 12 -11 41 -36 64 -55 59 -49 259 -250 289
-289 14 -19 35 -43 48 -54 12 -11 22 -25 22 -30 0 -4 6 -15 13 -22 27 -31 37
-44 37 -51 0 -4 8 -14 18 -23 20 -19 38 -46 53 -81 6 -14 16 -32 24 -40 7 -8
15 -22 17 -30 2 -8 8 -20 13 -27 6 -7 15 -18 20 -25 6 -7 19 -33 28 -57 20
-48 25 -38 -53 -105 -36 -31 -150 -171 -150 -184 0 -7 -3 -12 -8 -12 -17 0
-107 -208 -119 -275 -3 -16 -9 -35 -14 -41 -5 -6 -6 -14 -3 -17 4 -3 3 -14 -1
-24 -5 -10 -9 -44 -10 -75 0 -32 -4 -60 -7 -64 -4 -3 -3 -17 2 -30 6 -15 6
-24 0 -24 -5 0 -7 -6 -4 -13 2 -7 6 -35 8 -63 2 -27 5 -56 8 -64 5 -14 28
-104 32 -125 1 -5 14 -35 28 -67 14 -31 29 -67 33 -79 4 -13 14 -29 21 -37 8
-7 14 -21 14 -29 0 -9 3 -13 7 -10 3 4 19 -14 34 -41 15 -26 39 -59 54 -75 14
-15 23 -27 20 -27 -3 0 10 -16 30 -35 19 -20 35 -41 35 -47 0 -6 3 -9 6 -6 6
7 54 -39 54 -52 0 -6 3 -10 8 -10 6 0 44 -31 115 -95 15 -13 27 -21 27 -17 0
4 4 2 8 -4 10 -17 101 -84 112 -84 6 0 10 -4 10 -10 0 -5 5 -10 10 -10 6 0 35
-18 65 -40 30 -22 58 -41 62 -42 14 -2 58 -32 66 -45 4 -7 14 -13 21 -13 7 0
24 -9 37 -20 13 -11 29 -24 35 -28 5 -5 21 -15 35 -22 13 -7 29 -19 34 -25 6
-7 48 -42 95 -80 47 -37 95 -76 108 -86 12 -10 26 -19 30 -19 5 0 17 -8 28
-18 29 -27 141 -91 148 -85 3 4 6 1 6 -5 0 -7 5 -12 11 -12 6 0 17 -7 26 -15
8 -8 19 -13 23 -10 5 3 26 -2 47 -12 21 -10 49 -18 63 -17 40 2 90 16 90 25 0
4 8 10 18 13 9 4 35 22 57 42 22 19 60 52 85 72 24 20 52 44 61 52 9 8 33 29
54 45 21 17 43 35 49 40 6 6 36 30 66 54 30 25 62 51 70 58 8 8 25 22 38 32
157 129 430 404 466 470 5 9 14 21 20 26 16 13 128 195 120 195 -3 0 4 13 15
29 11 15 18 30 16 33 -3 3 5 27 17 54 28 62 32 86 32 209 1 108 -8 179 -26
223 -6 15 -12 29 -12 32 -14 74 -180 290 -223 290 -6 0 -13 4 -15 8 -1 5 -24
23 -50 41 -27 17 -48 34 -48 37 0 2 11 27 25 56 14 28 25 58 25 65 0 7 4 13 9
13 8 0 37 62 40 83 0 4 12 19 25 34 14 15 23 30 20 35 -3 4 -1 8 4 8 4 0 16
16 25 35 9 20 24 38 32 41 8 4 12 10 10 15 -3 4 2 16 12 26 10 10 31 37 48 58
83 111 301 327 371 368 8 4 26 19 40 32 14 13 57 43 94 67 78 49 98 78 72 100
-32 27 -83 41 -155 41 -102 0 -149 -7 -212 -33 -43 -18 -60 -23 -67 -22 -5 1
-8 -3 -8 -9 0 -5 -4 -8 -9 -5 -4 3 -34 -10 -66 -29 -31 -19 -61 -35 -66 -35
-5 0 -9 -4 -9 -10 0 -5 -5 -10 -10 -10 -12 0 -71 -40 -82 -55 -4 -5 -8 -6 -8
-1 0 5 -20 -11 -45 -36 -25 -25 -45 -44 -45 -42 0 3 -14 -9 -30 -26 -26 -26
-34 -30 -46 -19 -8 7 -13 18 -10 24 2 7 0 17 -5 22 -5 5 -10 21 -11 36 -1 15
-6 27 -10 27 -4 0 -7 3 -7 8 3 12 -25 72 -33 72 -4 0 -8 5 -8 11 0 23 -92 126
-160 180 -45 35 -190 114 -190 102 0 -3 -7 0 -15 7 -8 7 -15 9 -15 5 0 -4 -6
-2 -14 4 -11 9 -20 9 -34 2 -31 -16 -32 -44 -3 -87 56 -83 159 -313 166 -369
1 -11 5 -30 9 -42 15 -47 35 -156 30 -165 -2 -3 0 -9 6 -13 6 -4 8 -10 5 -15
-3 -5 -1 -19 5 -30 8 -14 8 -20 0 -20 -7 0 -8 -6 0 -19 5 -11 13 -99 16 -195
l7 -176 -37 2 c-20 1 -36 5 -36 10 0 5 -5 6 -11 3 -6 -4 -36 -8 -67 -10 -75
-4 -109 -13 -156 -42 -75 -48 -132 -127 -152 -213 -4 -19 -9 -37 -9 -40 -1 -3
-5 -24 -10 -47 -10 -55 -31 -75 -44 -42 -5 13 -7 32 -5 42 1 9 -1 17 -5 17 -4
0 -6 14 -5 30 1 17 -2 33 -7 36 -5 3 -9 18 -9 34 0 16 -5 32 -10 35 -6 4 -8
11 -5 16 4 5 1 9 -5 9 -6 0 -9 4 -5 9 3 5 1 12 -5 16 -5 3 -10 13 -10 21 0 23
-83 147 -127 191 -68 67 -107 99 -168 139 -33 21 -63 43 -67 49 -4 5 -8 7 -8
2 0 -4 -15 0 -32 10 -18 9 -41 18 -50 20 -9 1 -32 12 -49 22 -18 11 -36 18
-41 15 -4 -3 -13 -2 -20 2 -7 4 -24 8 -38 9 -14 1 -31 5 -38 9 -13 8 -223 10
-259 2 -16 -3 -23 0 -23 10 0 8 -4 14 -9 14 -8 0 -5 41 6 70 8 21 14 43 15 58
1 6 6 12 11 12 5 0 7 6 4 14 -3 8 -2 16 4 18 5 2 11 12 13 23 2 11 14 43 26
70 39 90 43 100 42 108 -1 4 2 7 7 7 5 0 14 12 20 28 5 15 26 54 46 87 20 33
38 68 42 78 3 9 9 17 13 17 4 0 11 11 14 25 4 14 11 25 16 25 6 0 10 6 10 13
1 6 14 28 30 47 17 19 30 40 30 47 0 6 6 16 13 20 15 10 81 93 73 93 -6 0 35
46 92 105 17 18 32 38 32 43 0 15 -90 -22 -143 -57 -25 -17 -48 -31 -52 -31
-9 0 -82 -58 -122 -97 -18 -18 -33 -30 -33 -27 0 2 -19 -16 -42 -42 -24 -26
-53 -57 -65 -70 -13 -13 -23 -27 -23 -32 0 -14 -35 -42 -53 -42 -13 0 -16 6
-12 23 3 12 6 33 7 47 1 14 5 30 8 35 4 6 7 26 7 46 0 19 4 42 9 50 11 17 15
36 17 72 1 15 6 27 11 27 4 0 6 7 3 15 -4 8 -2 17 2 20 5 2 12 20 15 39 4 20
13 47 21 62 8 15 12 31 9 36 -3 4 0 8 5 8 6 0 11 3 10 8 -2 15 14 52 22 52 5
0 8 3 7 8 -2 4 14 40 35 80 30 58 36 76 27 92 -6 11 -14 19 -18 19 -4 -1 -9 0
-12 1 -17 8 -59 4 -85 -10z"/>
</g>
</svg>
